{"title":"Beijo 2348/72 AKA Kiss 2348/72 - DVDRip","uid":8620549,"size":1143789568,"categoryP":"video","categoryS":"movies","magnet":"?xt=urn:btih:93ce2815011b6051dcf833bb2bed448ffa31840e&amp;dn=Beijo+2348%2F72+AKA+Kiss+2348%2F72+-+DVDRip&amp;tr=udp%3A%2F%2Ftracker.openbittorrent.com%3A80&amp;tr=udp%3A%2F%2Fopen.demonii.com%3A1337&amp;tr=udp%3A%2F%2Ftracker.coppersurfer.tk%3A6969&amp;tr=udp%3A%2F%2Fexodus.desync.com%3A6969","seeders":1,"leechers":0,"uploader":"rpessoa","files":1,"time":1372358556,"description":"A worker gets fired from his job after kissing another colleague worker during working hour. That's the premise of &quot;Beijo 2348/72&quot; (&quot;Kiss 2348/72&quot;), taken from a real case of a man under the same circumstances who decided to go to court against the firm, trying to present his side of the story. The numbers in the title refer to the civil process and the year it was started (1972).\n &lt;a href=&quot;\nhttp://www.imdb.com/title/tt0231243/&quot; rel=&quot;nofollow&quot; target=&quot;_NEW&quot;&gt;\nhttp://www.imdb.com/title/tt0231243/&lt;/a&gt;\n\nGeneral\nComplete name : Beijo 2348-72.DVDRip.avi\nFormat : AVI\nFormat/Info : Audio Video Interleave\nFile size : 1.07 GiB\nDuration : 1h 23mn\nOverall bit rate : 1 821 Kbps\nWriting application : VirtualDubMod 1.5.10.2 (build 2540/release)\nWriting library : VirtualDubMod build 2540/release\n\nVideo\nID : 0\nFormat : MPEG-4 Visual\nFormat profile : Advanced Simple@L5\nFormat settings, BVOP : 2\nFormat settings, QPel : No\nFormat settings, GMC : No warppoints\nFormat settings, Matrix : Default (MPEG)\nCodec ID : XVID\nCodec ID/Hint : XviD\nDuration : 1h 23mn\nBit rate : 1 588 Kbps\nWidth : 672 pixels\nHeight : 384 pixels\nDisplay aspect ratio : 16:9\nFrame rate : 23.976 fps\nColor space : YUV\nChroma subsampling : 4:2:0\nBit depth : 8 bits\nScan type : Progressive\nCompression mode : Lossy\nBits/(Pixel*Frame) : 0.257\nStream size : 951 MiB (87%)\nWriting library : XviD 64\n\nAudio\nID : 1\nFormat : AC-3\nFormat/Info : Audio Coding 3\nMode extension : CM (complete main)\nCodec ID : 2000\nDuration : 1h 23mn\nBit rate mode : Constant\nBit rate : 224 Kbps\nChannel(s) : 2 channels\nChannel positions : Front: L R\nSampling rate : 48.0 KHz\nBit depth : 16 bits\nCompression mode : Lossy\nStream size : 134 MiB (12%)\nAlignment : Split accross interleaves\nInterleave, duration : 42 ms (1.00 video frame)\nInterleave, preload duration : 500 ms","torrent":{"xt":"urn:btih:93ce2815011b6051dcf833bb2bed448ffa31840e","amp;dn":"Beijo+2348%2F72+AKA+Kiss+2348%2F72+-+DVDRip","amp;tr":["udp%3A%2F%2Ftracker.openbittorrent.com%3A80","udp%3A%2F%2Fopen.demonii.com%3A1337","udp%3A%2F%2Ftracker.coppersurfer.tk%3A6969","udp%3A%2F%2Fexodus.desync.com%3A6969"],"infoHash":"93ce2815011b6051dcf833bb2bed448ffa31840e","infoHashBuffer":{"type":"Buffer","data":[147,206,40,21,1,27,96,81,220,248,51,187,43,237,68,143,250,49,132,14]},"announce":[],"urlList":[]}}